<?xml version="1.0" encoding="UTF-8" standalone="no"?>
<!DOCTYPE svg PUBLIC "-//W3C//DTD SVG 1.1//EN" "http://www.w3.org/Graphics/SVG/1.1/DTD/svg11.dtd">
<svg version="1.1" xmlns="http://www.w3.org/2000/svg" xmlns:xlink="http://www.w3.org/1999/xlink" preserveAspectRatio="xMidYMid meet" viewBox="0 0 640 640" width="640" height="640"><defs><path d="M570 320C570 457.98 457.98 570 320 570C182.02 570 70 457.98 70 320C70 182.02 182.02 70 320 70C457.98 70 570 182.02 570 320Z" id="d60S5p6rpi"></path><path d="M394.61 79.77C379.02 100.29 363.54 120.85 348.04 141.39C329.3 141.39 310.56 141.49 291.83 141.34C276.53 120.74 260.86 100.29 245.39 79.75C295.13 79.8 344.87 79.77 394.61 79.77Z" id="a23zFfBbRB"></path><path d="M291.83 146.99C310.65 146.98 329.45 147.06 348.27 146.93C358.97 229.33 369.15 311.76 379.68 394.17C382.18 415.48 385.41 436.75 387.47 458.07C365.03 490.22 342.81 522.46 319.96 554.43C297.71 522.19 275.01 490.1 252.53 457.95C265.59 354.29 278.75 250.64 291.83 146.99Z" id="a1n8d3yRzG"></path></defs><g><g><g><g><use xlink:href="#d60S5p6rpi" opacity="1" fill-opacity="0" stroke="#ffffff" stroke-width="23" stroke-opacity="1"></use></g></g><g><use xlink:href="#a23zFfBbRB" opacity="1" fill="#ffffff" fill-opacity="1"></use><g><use xlink:href="#a23zFfBbRB" opacity="1" fill-opacity="0" stroke="#000000" stroke-width="1" stroke-opacity="0"></use></g></g><g><use xlink:href="#a1n8d3yRzG" opacity="1" fill="#ffffff" fill-opacity="1"></use><g><use xlink:href="#a1n8d3yRzG" opacity="1" fill-opacity="0" stroke="#000000" stroke-width="1" stroke-opacity="0"></use></g></g></g></g></svg>